<mxfile host="app.diagrams.net" modified="2023-04-13T09:55:11.970Z" agent="Mozilla/5.0 (Windows NT 10.0; Win64; x64) AppleWebKit/537.36 (KHTML, like Gecko) Chrome/112.0.0.0 Safari/537.36" etag="dRg2RtrILhOCJqynE79R" version="21.1.7" type="device">
  <diagram name="Page-1" id="4oTnLAH2bn3THDDEUlut">
    <mxGraphModel dx="1221" dy="640" grid="1" gridSize="10" guides="1" tooltips="1" connect="1" arrows="1" fold="1" page="1" pageScale="1" pageWidth="1100" pageHeight="850" math="0" shadow="0">
      <root>
        <mxCell id="0" />
        <mxCell id="1" parent="0" />
        <mxCell id="HTQoAm9-pCDuRQszzRv6-7" style="edgeStyle=orthogonalEdgeStyle;rounded=0;orthogonalLoop=1;jettySize=auto;html=1;exitX=1;exitY=0.5;exitDx=0;exitDy=0;" parent="1" source="HTQoAm9-pCDuRQszzRv6-3" target="HTQoAm9-pCDuRQszzRv6-4" edge="1">
          <mxGeometry relative="1" as="geometry" />
        </mxCell>
        <mxCell id="HTQoAm9-pCDuRQszzRv6-3" value="Start" style="rounded=1;whiteSpace=wrap;html=1;arcSize=50;fillColor=#000000;fontColor=#FFFFFF;" parent="1" vertex="1">
          <mxGeometry x="33" y="153" width="75" height="40" as="geometry" />
        </mxCell>
        <mxCell id="HTQoAm9-pCDuRQszzRv6-6" style="edgeStyle=orthogonalEdgeStyle;rounded=0;orthogonalLoop=1;jettySize=auto;html=1;exitX=1;exitY=0.5;exitDx=0;exitDy=0;" parent="1" source="HTQoAm9-pCDuRQszzRv6-4" target="HTQoAm9-pCDuRQszzRv6-5" edge="1">
          <mxGeometry relative="1" as="geometry" />
        </mxCell>
        <mxCell id="HTQoAm9-pCDuRQszzRv6-4" value="Read input" style="shape=parallelogram;perimeter=parallelogramPerimeter;whiteSpace=wrap;html=1;fixedSize=1;fillColor=#dae8fc;strokeColor=#6c8ebf;" parent="1" vertex="1">
          <mxGeometry x="148" y="153" width="120" height="40" as="geometry" />
        </mxCell>
        <mxCell id="HTQoAm9-pCDuRQszzRv6-22" style="edgeStyle=orthogonalEdgeStyle;rounded=0;orthogonalLoop=1;jettySize=auto;html=1;exitX=0.5;exitY=1;exitDx=0;exitDy=0;entryX=0.5;entryY=0;entryDx=0;entryDy=0;" parent="1" source="HTQoAm9-pCDuRQszzRv6-5" target="HTQoAm9-pCDuRQszzRv6-19" edge="1">
          <mxGeometry relative="1" as="geometry" />
        </mxCell>
        <mxCell id="HTQoAm9-pCDuRQszzRv6-5" value="Input flag&lt;br&gt;-i defined?" style="rhombus;whiteSpace=wrap;html=1;fillColor=#fff2cc;strokeColor=#d6b656;" parent="1" vertex="1">
          <mxGeometry x="308" y="123" width="110" height="100" as="geometry" />
        </mxCell>
        <mxCell id="HTQoAm9-pCDuRQszzRv6-19" value="End" style="rounded=1;whiteSpace=wrap;html=1;arcSize=50;fontColor=#FFFFFF;fillColor=#000000;" parent="1" vertex="1">
          <mxGeometry x="325.5" y="453" width="75" height="40" as="geometry" />
        </mxCell>
        <mxCell id="HTQoAm9-pCDuRQszzRv6-23" value="No" style="text;html=1;strokeColor=none;fillColor=none;align=center;verticalAlign=middle;whiteSpace=wrap;rounded=0;rotation=0;" parent="1" vertex="1">
          <mxGeometry x="318" y="233" width="60" height="30" as="geometry" />
        </mxCell>
        <mxCell id="HTQoAm9-pCDuRQszzRv6-31" style="edgeStyle=orthogonalEdgeStyle;rounded=0;orthogonalLoop=1;jettySize=auto;html=1;exitX=1;exitY=0.5;exitDx=0;exitDy=0;" parent="1" source="HTQoAm9-pCDuRQszzRv6-5" target="HTQoAm9-pCDuRQszzRv6-29" edge="1">
          <mxGeometry relative="1" as="geometry" />
        </mxCell>
        <mxCell id="HTQoAm9-pCDuRQszzRv6-28" value="Yes" style="text;html=1;strokeColor=none;fillColor=none;align=center;verticalAlign=middle;whiteSpace=wrap;rounded=0;" parent="1" vertex="1">
          <mxGeometry x="408" y="143" width="60" height="30" as="geometry" />
        </mxCell>
        <mxCell id="HTQoAm9-pCDuRQszzRv6-51" style="edgeStyle=orthogonalEdgeStyle;rounded=0;orthogonalLoop=1;jettySize=auto;html=1;exitX=0.5;exitY=1;exitDx=0;exitDy=0;entryX=0.5;entryY=0;entryDx=0;entryDy=0;" parent="1" source="HTQoAm9-pCDuRQszzRv6-29" target="HTQoAm9-pCDuRQszzRv6-50" edge="1">
          <mxGeometry relative="1" as="geometry" />
        </mxCell>
        <mxCell id="HTQoAm9-pCDuRQszzRv6-29" value="Set defaults" style="rounded=1;whiteSpace=wrap;html=1;fillColor=#e1d5e7;strokeColor=#9673a6;" parent="1" vertex="1">
          <mxGeometry x="468" y="153" width="120" height="40" as="geometry" />
        </mxCell>
        <mxCell id="HTQoAm9-pCDuRQszzRv6-41" style="edgeStyle=orthogonalEdgeStyle;rounded=0;orthogonalLoop=1;jettySize=auto;html=1;exitX=0.5;exitY=0;exitDx=0;exitDy=0;entryX=0;entryY=0.5;entryDx=0;entryDy=0;" parent="1" source="HTQoAm9-pCDuRQszzRv6-43" target="HTQoAm9-pCDuRQszzRv6-44" edge="1">
          <mxGeometry relative="1" as="geometry" />
        </mxCell>
        <mxCell id="HTQoAm9-pCDuRQszzRv6-81" style="edgeStyle=orthogonalEdgeStyle;rounded=0;orthogonalLoop=1;jettySize=auto;html=1;exitX=1;exitY=0.5;exitDx=0;exitDy=0;entryX=0;entryY=0.5;entryDx=0;entryDy=0;" parent="1" source="HTQoAm9-pCDuRQszzRv6-43" target="HTQoAm9-pCDuRQszzRv6-79" edge="1">
          <mxGeometry relative="1" as="geometry" />
        </mxCell>
        <mxCell id="HTQoAm9-pCDuRQszzRv6-43" value="Input flag&lt;br&gt;-o defined?" style="rhombus;whiteSpace=wrap;html=1;fillColor=#fff2cc;strokeColor=#d6b656;" parent="1" vertex="1">
          <mxGeometry x="628" y="203" width="110" height="100" as="geometry" />
        </mxCell>
        <mxCell id="HTQoAm9-pCDuRQszzRv6-80" style="edgeStyle=orthogonalEdgeStyle;rounded=0;orthogonalLoop=1;jettySize=auto;html=1;exitX=0.5;exitY=1;exitDx=0;exitDy=0;entryX=0.5;entryY=0;entryDx=0;entryDy=0;" parent="1" source="HTQoAm9-pCDuRQszzRv6-44" target="HTQoAm9-pCDuRQszzRv6-79" edge="1">
          <mxGeometry relative="1" as="geometry" />
        </mxCell>
        <mxCell id="HTQoAm9-pCDuRQszzRv6-44" value="outputDir =&lt;br&gt;&quot;$HOME/Data/mzML/&lt;br&gt;$batchName/&quot;" style="rounded=0;whiteSpace=wrap;html=1;fillColor=#d5e8d4;strokeColor=#82b366;" parent="1" vertex="1">
          <mxGeometry x="768" y="113" width="140" height="50" as="geometry" />
        </mxCell>
        <mxCell id="HTQoAm9-pCDuRQszzRv6-74" style="edgeStyle=orthogonalEdgeStyle;rounded=0;orthogonalLoop=1;jettySize=auto;html=1;exitX=0.5;exitY=1;exitDx=0;exitDy=0;entryX=0.5;entryY=0;entryDx=0;entryDy=0;" parent="1" source="HTQoAm9-pCDuRQszzRv6-45" target="HTQoAm9-pCDuRQszzRv6-58" edge="1">
          <mxGeometry relative="1" as="geometry" />
        </mxCell>
        <mxCell id="HTQoAm9-pCDuRQszzRv6-45" value="Check directory paths" style="rounded=1;whiteSpace=wrap;html=1;fillColor=#e1d5e7;strokeColor=#9673a6;" parent="1" vertex="1">
          <mxGeometry x="768" y="343" width="140" height="40" as="geometry" />
        </mxCell>
        <mxCell id="HTQoAm9-pCDuRQszzRv6-46" value="No" style="text;html=1;strokeColor=none;fillColor=none;align=center;verticalAlign=middle;whiteSpace=wrap;rounded=0;" parent="1" vertex="1">
          <mxGeometry x="688" y="108" width="60" height="30" as="geometry" />
        </mxCell>
        <mxCell id="HTQoAm9-pCDuRQszzRv6-52" style="edgeStyle=orthogonalEdgeStyle;rounded=0;orthogonalLoop=1;jettySize=auto;html=1;exitX=1;exitY=0.5;exitDx=0;exitDy=0;entryX=0;entryY=0.5;entryDx=0;entryDy=0;" parent="1" source="HTQoAm9-pCDuRQszzRv6-50" target="HTQoAm9-pCDuRQszzRv6-43" edge="1">
          <mxGeometry relative="1" as="geometry" />
        </mxCell>
        <mxCell id="HTQoAm9-pCDuRQszzRv6-50" value="Extract batchName" style="rounded=0;whiteSpace=wrap;html=1;fillColor=#d5e8d4;strokeColor=#82b366;" parent="1" vertex="1">
          <mxGeometry x="468" y="233" width="120" height="40" as="geometry" />
        </mxCell>
        <mxCell id="HTQoAm9-pCDuRQszzRv6-86" style="edgeStyle=orthogonalEdgeStyle;rounded=0;orthogonalLoop=1;jettySize=auto;html=1;exitX=0.5;exitY=1;exitDx=0;exitDy=0;entryX=1;entryY=0.5;entryDx=0;entryDy=0;" parent="1" source="HTQoAm9-pCDuRQszzRv6-53" target="HTQoAm9-pCDuRQszzRv6-45" edge="1">
          <mxGeometry relative="1" as="geometry" />
        </mxCell>
        <mxCell id="HTQoAm9-pCDuRQszzRv6-53" value="sampleFile = &quot;*.*&quot;" style="rounded=0;whiteSpace=wrap;html=1;fillColor=#d5e8d4;strokeColor=#82b366;" parent="1" vertex="1">
          <mxGeometry x="943" y="233" width="120" height="40" as="geometry" />
        </mxCell>
        <mxCell id="HTQoAm9-pCDuRQszzRv6-72" style="edgeStyle=orthogonalEdgeStyle;rounded=0;orthogonalLoop=1;jettySize=auto;html=1;exitX=0.5;exitY=1;exitDx=0;exitDy=0;entryX=0.5;entryY=0;entryDx=0;entryDy=0;" parent="1" source="HTQoAm9-pCDuRQszzRv6-58" target="HTQoAm9-pCDuRQszzRv6-62" edge="1">
          <mxGeometry relative="1" as="geometry" />
        </mxCell>
        <mxCell id="HTQoAm9-pCDuRQszzRv6-88" style="edgeStyle=orthogonalEdgeStyle;rounded=0;orthogonalLoop=1;jettySize=auto;html=1;exitX=0;exitY=0.5;exitDx=0;exitDy=0;entryX=1;entryY=0.5;entryDx=0;entryDy=0;" parent="1" source="HTQoAm9-pCDuRQszzRv6-58" target="HTQoAm9-pCDuRQszzRv6-19" edge="1">
          <mxGeometry relative="1" as="geometry" />
        </mxCell>
        <mxCell id="HTQoAm9-pCDuRQszzRv6-58" value="Input &lt;br&gt;directory&lt;br&gt;exist?" style="rhombus;whiteSpace=wrap;html=1;fillColor=#fff2cc;strokeColor=#d6b656;" parent="1" vertex="1">
          <mxGeometry x="783" y="423" width="110" height="100" as="geometry" />
        </mxCell>
        <mxCell id="HTQoAm9-pCDuRQszzRv6-65" style="edgeStyle=orthogonalEdgeStyle;rounded=0;orthogonalLoop=1;jettySize=auto;html=1;exitX=1;exitY=0.5;exitDx=0;exitDy=0;entryX=0;entryY=0.5;entryDx=0;entryDy=0;" parent="1" source="HTQoAm9-pCDuRQszzRv6-62" target="HTQoAm9-pCDuRQszzRv6-64" edge="1">
          <mxGeometry relative="1" as="geometry" />
        </mxCell>
        <mxCell id="HTQoAm9-pCDuRQszzRv6-69" style="edgeStyle=orthogonalEdgeStyle;rounded=0;orthogonalLoop=1;jettySize=auto;html=1;exitX=0.5;exitY=1;exitDx=0;exitDy=0;" parent="1" source="HTQoAm9-pCDuRQszzRv6-62" target="HTQoAm9-pCDuRQszzRv6-68" edge="1">
          <mxGeometry relative="1" as="geometry" />
        </mxCell>
        <mxCell id="HTQoAm9-pCDuRQszzRv6-62" value="Output &lt;br&gt;directory&lt;br&gt;exist?" style="rhombus;whiteSpace=wrap;html=1;fillColor=#fff2cc;strokeColor=#d6b656;" parent="1" vertex="1">
          <mxGeometry x="783" y="563" width="110" height="100" as="geometry" />
        </mxCell>
        <mxCell id="HTQoAm9-pCDuRQszzRv6-73" style="edgeStyle=orthogonalEdgeStyle;rounded=0;orthogonalLoop=1;jettySize=auto;html=1;exitX=0.5;exitY=1;exitDx=0;exitDy=0;entryX=1;entryY=0.5;entryDx=0;entryDy=0;" parent="1" source="HTQoAm9-pCDuRQszzRv6-64" target="HTQoAm9-pCDuRQszzRv6-68" edge="1">
          <mxGeometry relative="1" as="geometry" />
        </mxCell>
        <mxCell id="HTQoAm9-pCDuRQszzRv6-64" value="Create path" style="rounded=0;whiteSpace=wrap;html=1;fillColor=#d5e8d4;strokeColor=#82b366;" parent="1" vertex="1">
          <mxGeometry x="943" y="593" width="125" height="40" as="geometry" />
        </mxCell>
        <mxCell id="HTQoAm9-pCDuRQszzRv6-66" value="No" style="text;html=1;strokeColor=none;fillColor=none;align=center;verticalAlign=middle;whiteSpace=wrap;rounded=0;rotation=0;" parent="1" vertex="1">
          <mxGeometry x="883" y="583" width="60" height="30" as="geometry" />
        </mxCell>
        <mxCell id="HTQoAm9-pCDuRQszzRv6-67" value="Yes" style="text;html=1;strokeColor=none;fillColor=none;align=center;verticalAlign=middle;whiteSpace=wrap;rounded=0;rotation=0;" parent="1" vertex="1">
          <mxGeometry x="783" y="523" width="60" height="30" as="geometry" />
        </mxCell>
        <mxCell id="HTQoAm9-pCDuRQszzRv6-94" style="edgeStyle=orthogonalEdgeStyle;rounded=0;orthogonalLoop=1;jettySize=auto;html=1;exitX=0;exitY=0.5;exitDx=0;exitDy=0;entryX=0.5;entryY=1;entryDx=0;entryDy=0;" parent="1" source="HTQoAm9-pCDuRQszzRv6-68" target="HTQoAm9-pCDuRQszzRv6-19" edge="1">
          <mxGeometry relative="1" as="geometry">
            <mxPoint x="631" y="723" as="targetPoint" />
          </mxGeometry>
        </mxCell>
        <mxCell id="HTQoAm9-pCDuRQszzRv6-68" value="Execute &lt;br&gt;Docker container" style="rounded=1;whiteSpace=wrap;html=1;fillColor=#e1d5e7;strokeColor=#9673a6;" parent="1" vertex="1">
          <mxGeometry x="768" y="703" width="140" height="40" as="geometry" />
        </mxCell>
        <mxCell id="HTQoAm9-pCDuRQszzRv6-70" value="Yes" style="text;html=1;strokeColor=none;fillColor=none;align=center;verticalAlign=middle;whiteSpace=wrap;rounded=0;rotation=0;" parent="1" vertex="1">
          <mxGeometry x="783" y="663" width="60" height="30" as="geometry" />
        </mxCell>
        <mxCell id="HTQoAm9-pCDuRQszzRv6-83" style="edgeStyle=orthogonalEdgeStyle;rounded=0;orthogonalLoop=1;jettySize=auto;html=1;exitX=1;exitY=0.5;exitDx=0;exitDy=0;entryX=0;entryY=0.5;entryDx=0;entryDy=0;" parent="1" source="HTQoAm9-pCDuRQszzRv6-79" target="HTQoAm9-pCDuRQszzRv6-53" edge="1">
          <mxGeometry relative="1" as="geometry" />
        </mxCell>
        <mxCell id="HTQoAm9-pCDuRQszzRv6-85" style="edgeStyle=orthogonalEdgeStyle;rounded=0;orthogonalLoop=1;jettySize=auto;html=1;exitX=0.5;exitY=1;exitDx=0;exitDy=0;entryX=0.5;entryY=0;entryDx=0;entryDy=0;" parent="1" source="HTQoAm9-pCDuRQszzRv6-79" target="HTQoAm9-pCDuRQszzRv6-45" edge="1">
          <mxGeometry relative="1" as="geometry" />
        </mxCell>
        <mxCell id="HTQoAm9-pCDuRQszzRv6-79" value="Input flag&lt;br&gt;-s defined?" style="rhombus;whiteSpace=wrap;html=1;fillColor=#fff2cc;strokeColor=#d6b656;" parent="1" vertex="1">
          <mxGeometry x="783" y="203" width="110" height="100" as="geometry" />
        </mxCell>
        <mxCell id="HTQoAm9-pCDuRQszzRv6-82" value="Yes" style="text;html=1;strokeColor=none;fillColor=none;align=center;verticalAlign=middle;whiteSpace=wrap;rounded=0;" parent="1" vertex="1">
          <mxGeometry x="723" y="223" width="60" height="30" as="geometry" />
        </mxCell>
        <mxCell id="HTQoAm9-pCDuRQszzRv6-84" value="No" style="text;html=1;strokeColor=none;fillColor=none;align=center;verticalAlign=middle;whiteSpace=wrap;rounded=0;" parent="1" vertex="1">
          <mxGeometry x="883" y="223" width="60" height="30" as="geometry" />
        </mxCell>
        <mxCell id="HTQoAm9-pCDuRQszzRv6-87" value="Yes" style="text;html=1;strokeColor=none;fillColor=none;align=center;verticalAlign=middle;whiteSpace=wrap;rounded=0;" parent="1" vertex="1">
          <mxGeometry x="783" y="303" width="60" height="30" as="geometry" />
        </mxCell>
        <mxCell id="HTQoAm9-pCDuRQszzRv6-89" value="No" style="text;html=1;strokeColor=none;fillColor=none;align=center;verticalAlign=middle;whiteSpace=wrap;rounded=0;rotation=0;" parent="1" vertex="1">
          <mxGeometry x="723" y="440" width="60" height="30" as="geometry" />
        </mxCell>
      </root>
    </mxGraphModel>
  </diagram>
</mxfile>
